<svg width="165" height="40" viewBox="0 0 165 40" fill="none" xmlns="http://www.w3.org/2000/svg" class="h-10"><path d="M156.828 39.9515C154.882 39.9515 153.341 39.4505 152.206 38.4485C151.086 37.4465 150.527 36.0727 150.527 34.3273C150.527 32.2909 151.192 30.6828 152.522 29.503C153.852 28.3071 155.652 27.7091 157.923 27.7091C159.885 27.7091 161.426 28.202 162.545 29.1879C163.664 30.1576 164.224 31.499 164.224 33.2121C164.224 35.2646 163.559 36.905 162.229 38.1333C160.899 39.3455 159.099 39.9515 156.828 39.9515Z" fill="#03DD4D"></path><path d="M135.675 39.7333C131.215 39.7333 127.785 38.7313 125.384 36.7273C123 34.7232 121.808 31.9758 121.808 28.4848C121.808 25.3172 122.514 22.5697 123.925 20.2424C125.336 17.899 127.29 16.0889 129.788 14.8121C132.302 13.5192 135.213 12.8727 138.522 12.8727C140.954 12.8727 143.006 13.2606 144.677 14.0364C146.347 14.796 147.612 15.8061 148.472 17.0667C149.331 18.3273 149.761 19.7091 149.761 21.2121C149.761 22.1495 149.566 23.0949 149.177 24.0485C148.788 25.002 148.05 25.8343 146.963 26.5455C145.893 27.2404 144.328 27.6848 142.268 27.8788L133.364 28.703C133.77 31.2081 135.837 32.4606 139.568 32.4606C140.849 32.4606 142.163 32.2263 143.509 31.7576C144.871 31.2889 146.152 30.602 147.353 29.697L147.961 29.9879L146.72 36.9455C145.925 37.5434 144.896 38.0525 143.63 38.4727C142.382 38.8929 141.052 39.2081 139.641 39.4182C138.246 39.6283 136.924 39.7333 135.675 39.7333ZM133.802 23.6121L133.753 24.0485L138.108 23.6364C139.065 23.5556 139.754 23.297 140.176 22.8606C140.598 22.4081 140.808 21.8909 140.808 21.3091C140.808 20.4525 140.565 19.8303 140.079 19.4424C139.608 19.0384 139.016 18.8364 138.303 18.8364C137.054 18.8364 136.056 19.2889 135.31 20.1939C134.58 21.0828 134.078 22.2222 133.802 23.6121Z" fill="#03DD4D"></path><path d="M94.5736 39.7333C92.8382 39.7333 91.2406 39.3535 89.781 38.5939C88.3375 37.8182 87.186 36.6465 86.3264 35.0788C85.4668 33.5111 85.037 31.5313 85.037 29.1394C85.037 25.9071 85.6371 23.0707 86.8373 20.6303C88.0537 18.1899 89.7404 16.2909 91.8975 14.9333C94.0546 13.5596 96.5522 12.8727 99.3905 12.8727C100.493 12.8727 101.637 13.0667 102.821 13.4545C104.005 13.8263 104.994 14.3515 105.789 15.0303L106.738 9.67273H102.529L103.721 3.05455L119.972 1.47879L114.571 32.0242H117.928L116.639 39.297H104.256L103.137 36.0242C101.953 37.2848 100.615 38.2222 99.1229 38.8364C97.6308 39.4343 96.1143 39.7333 94.5736 39.7333ZM99.2932 32.4606C99.9906 32.4606 100.704 32.202 101.434 31.6848C102.164 31.1677 102.78 30.3354 103.283 29.1879L104.743 20.9455C104.386 20.6707 103.948 20.4687 103.429 20.3394C102.91 20.1939 102.415 20.1212 101.945 20.1212C100.274 20.1212 98.9607 20.8889 98.0038 22.4242C97.0631 23.9596 96.5928 26.004 96.5928 28.5576C96.5928 31.1596 97.4929 32.4606 99.2932 32.4606Z" fill="#03DD4D"></path><path d="M60.9406 39.297L62.23 32.0242H65.9522L67.9227 20.897H64.2006L65.3683 14.2788L81.1085 12.8485L77.7269 32.0242H81.4491L80.1597 39.297H60.9406ZM75.9996 11.2242C73.9885 11.2242 72.3991 10.7556 71.2314 9.81818C70.0636 8.86465 69.4797 7.62828 69.4797 6.10909C69.4797 4.23434 70.169 2.7798 71.5476 1.74545C72.9262 0.711111 74.7508 0.193939 77.0214 0.193939C79.0974 0.193939 80.703 0.646465 81.8384 1.55152C82.9737 2.4404 83.5413 3.65253 83.5413 5.18788C83.5413 7.07879 82.852 8.55758 81.4734 9.62424C80.0948 10.6909 78.2703 11.2242 75.9996 11.2242Z" fill="#03DD4D"></path><path d="M38.8635 39.297L40.1528 32.0242H43.875L47.8162 9.67273H44.094L45.286 3.05455L61.0506 1.47879L55.6498 32.0242H59.372L58.0826 39.297H38.8635Z" fill="#03DD4D"></path><path d="M20.1679 40C16.0159 40 12.4316 39.305 9.41493 37.9152C6.39826 36.5253 4.07899 34.5616 2.45713 32.0242C0.835261 29.4707 0.0162187 26.4404 0 22.9333C0 19.2646 0.567653 16.0081 1.70296 13.1636C2.85448 10.3192 4.4358 7.91919 6.44691 5.96364C8.45803 4.00808 10.753 2.52929 13.3317 1.52727C15.9267 0.509091 18.6596 0 21.5303 0C24.255 0 26.4932 0.371717 28.2448 1.11515C30.0126 1.84242 31.3912 2.94949 32.3805 4.43636L34.2295 0.70303H40.9197L38.4382 14.7394H29.4369C29.4855 12.4444 29.0152 10.8444 28.0258 9.93939C27.0527 9.01818 25.6985 8.55758 23.9631 8.55758C21.7573 8.55758 19.9003 9.18788 18.392 10.4485C16.8998 11.7091 15.7726 13.3576 15.0104 15.3939C14.2643 17.4303 13.8913 19.6121 13.8913 21.9394C13.8913 24.5899 14.6049 26.6424 16.0321 28.097C17.4756 29.5354 19.4948 30.2545 22.0898 30.2545C22.6575 30.2545 23.2494 30.2141 23.8657 30.1333C24.4821 30.0364 25.0578 29.9071 25.593 29.7455L26.2985 25.8182H21.7249L23.0143 18.5455H38.5842L35.3972 36.5818C34.0673 37.2606 32.5427 37.8586 30.8236 38.3758C29.1044 38.8929 27.3203 39.2889 25.4714 39.5636C23.6387 39.8545 21.8709 40 20.1679 40Z" fill="#03DD4D"></path></svg>